<?xml version="1.0" encoding="UTF-8"?>
<svg id="Layer_1" data-name="Layer 1" xmlns="http://www.w3.org/2000/svg" viewBox="0 0 104.262 23.771">
  <defs>
    <style>
      .cls-1 {
        fill: #101820;
      }

      .cls-2 {
        fill: #fa5500;
      }
    </style>
  </defs>
  <g>
    <path class="cls-1" d="M104.056,11.058c-.137-.33-.345-.624-.615-.873-.272-.249-.614-.448-1.016-.592-.403-.144-.875-.217-1.403-.218-.566-.001-1.088.092-1.552.276-.463.183-.865.446-1.194.783-.33.337-.588.746-.769,1.217-.182.471-.274,1.006-.276,1.589-.001.631.096,1.184.29,1.646.194.463.467.852.813,1.155s.757.534,1.225.684c.47.149.989.221,1.542.227.545.005,1.155-.047,1.778-.225.405-.116.613-.276.694-.365.065-.072.113-.153.142-.242.023-.071.035-.147.035-.228,0-.187-.047-.356-.14-.502-.086-.138-.185-.243-.294-.312h-.002s-.005,0-.007,0c-.1.039-.281.095-.555.17-.326.089-.798.188-1.404.187-.61-.001-1.109-.14-1.48-.413-.374-.273-.607-.612-.694-1.008l-.012-.055,2.881.006c.419,0,.774-.042,1.054-.129.279-.086.506-.21.675-.369.169-.158.293-.353.371-.58.078-.227.119-.488.119-.774,0-.37-.069-.724-.207-1.054h0ZM102.337,12.537c-.105.14-.316.207-.644.207l-2.575-.005v-.046c0-.219.04-.45.117-.69.077-.237.194-.46.348-.662.154-.2.349-.37.58-.504.232-.134.506-.202.814-.202.277,0,.517.042.709.125s.35.188.467.315c.116.127.202.269.256.425.054.159.08.302.08.438,0,.262-.052.463-.152.598h0Z"/>
    <path class="cls-1" d="M71.27,10.185c-.272-.249-.614-.448-1.016-.592-.403-.144-.875-.217-1.403-.218-.566-.001-1.088.092-1.552.276-.462.183-.864.446-1.194.783-.33.337-.588.746-.769,1.217-.182.471-.274,1.006-.276,1.589-.001.631.096,1.184.29,1.646.194.463.467.852.813,1.155s.758.534,1.225.684c.471.149.989.221,1.542.227.546.005,1.155-.047,1.778-.225.405-.116.613-.276.695-.365.065-.072.112-.153.142-.242.023-.071.035-.147.035-.228,0-.187-.046-.356-.14-.502-.086-.138-.185-.243-.294-.312h-.002s-.006,0-.007,0c-.1.039-.281.095-.556.17-.326.089-.798.188-1.403.187-.61-.001-1.109-.14-1.481-.413-.374-.273-.607-.612-.694-1.008l-.012-.055,2.881.006c.419,0,.774-.042,1.054-.129.279-.086.506-.21.675-.369s.293-.353.371-.58c.078-.227.119-.488.119-.774,0-.37-.069-.724-.207-1.054-.137-.33-.344-.624-.615-.873h.001ZM70.168,12.537c-.105.14-.316.207-.644.207l-2.575-.005v-.046c0-.219.04-.45.116-.69.077-.237.194-.46.349-.662.154-.2.349-.37.58-.504.232-.134.506-.202.813-.202.277,0,.517.042.709.125s.35.188.467.315c.116.127.202.269.256.425.054.159.08.302.08.438,0,.262-.051.463-.152.598h0Z"/>
    <path class="cls-1" d="M78.401,10.034c-.339-.237-.747-.407-1.213-.505-.471-.098-.997-.148-1.566-.148-.297,0-.591.02-.877.057-.282.037-.535.1-.752.189-.214.087-.387.202-.514.344-.124.138-.186.308-.186.503s.05.38.149.536c.092.149.198.262.315.334.064-.039.144-.088.236-.149.111-.073.247-.146.403-.217.157-.072.348-.135.566-.187.22-.053.475-.08.76-.08.637,0,1.118.123,1.427.365.312.245.469.602.469,1.06v.281l-.053-.009c-.028-.005-.128-.019-.49-.049-.281-.023-.637-.035-1.056-.035-.445,0-.844.026-1.192.076h-.007c-.006.001-.011.002-.017.003-.027.003-.054.007-.08.011-.006.001-.012.002-.017.003-.002,0-.003,0-.004,0-.053.009-.106.019-.156.03-.013.002-.024.005-.037.007-.017.004-.034.007-.05.011-.578.138-.944.393-1.175.679-.278.345-.359.734-.375,1.018v.065c0,.112.006.223.019.332h0c.03.254.092.498.189.73.138.333.346.629.618.879.273.251.615.451,1.017.595.372.133,1.092.212,1.535.212.798,0,1.397-.066,1.944-.117.334-.031.703-.096.885-.123.158-.022.237-.036.274-.043l.055-4.215c.007-.595-.074-1.103-.259-1.498-.184-.393-.448-.712-.783-.949h-.001ZM77.604,15.585l-.036.007c-.098.022-.268.06-.484.079-.231.02-.463.028-.683.028h-.024c-.129-.003-.248-.011-.358-.024-.007,0-.013-.001-.02-.002h-.006c-.011-.001-.022-.003-.033-.005-.834-.11-1.17-.488-1.311-.819-.048-.112-.134-.446.029-.778.02-.035.041-.069.067-.102.069-.091.165-.175.295-.25.087-.05.178-.092.273-.127.081-.03.163-.056.248-.077.166-.042.339-.067.509-.08.132-.01.264-.013.392-.011.428.007.805.07,1.001.11.053.007.089.014.112.022l.032.01v2.019h-.002Z"/>
    <path class="cls-1" d="M63.954,15.001h-3.689v-7.73c0-.2-.139-.24-.27-.24h-.597c-.747,0-1.11.349-1.11,1.065v8.622h6.658v-.687c0-.326-.092-.582-.274-.759-.289-.281-.71-.27-.717-.271h0Z"/>
    <path class="cls-1" d="M42.281,9.553c-.304,0-.55.059-.732.177-.176.114-.266.326-.266.631v4.915l-.032.009c-.067.021-.168.037-.308.053-.138.013-.341.021-.605.021-.722,0-1.251-.157-1.573-.468-.321-.312-.484-.767-.484-1.357v-3.824c-.055-.019-.16-.048-.316-.088-.182-.046-.382-.069-.594-.069-.303,0-.55.059-.732.177-.176.114-.265.326-.265.631v3.372c0,1.045.333,1.844.989,2.378.659.536,1.722.807,3.16.807.337,0,.66-.009.96-.028.31-.019.589-.038.842-.057.247-.019.456-.04.618-.063.125-.018.204-.032.245-.04v-7.02c-.057-.019-.161-.048-.315-.088-.183-.046-.384-.069-.595-.069h.002Z"/>
    <path class="cls-1" d="M48.748,9.536c-.176-.074-.384-.13-.618-.168-.232-.037-.484-.056-.748-.056-.432,0-.837.04-1.203.119-.368.08-.696.171-.972.269-.279.1-.504.196-.67.288-.146.082-.243.138-.29.169v6.563h1.906v-5.519l.024-.013c.089-.049.245-.115.463-.195.223-.082.54-.123.943-.123.132,0,.271.009.427.028.158.022.293.048.412.08.131.035.239.068.332.101.074.026.129.05.167.074.068-.074.148-.177.238-.306.099-.144.149-.346.149-.6,0-.171-.048-.31-.146-.426-.099-.117-.237-.213-.411-.286h-.002Z"/>
    <path class="cls-1" d="M56.268,10.429c-.34-.339-.755-.614-1.233-.816-.478-.2-1.019-.301-1.608-.301s-1.131.102-1.609.301c-.479.202-.895.477-1.235.816-.341.341-.606.747-.788,1.209-.183.463-.276.968-.276,1.499s.093,1.036.276,1.498c.182.462.447.869.788,1.209.341.341.757.615,1.235.815.478.201,1.019.303,1.608.303s1.13-.102,1.608-.303c.478-.201.893-.475,1.233-.815.341-.339.607-.746.79-1.209.182-.463.274-.967.274-1.498s-.092-1.036-.274-1.499c-.183-.463-.449-.869-.79-1.209h0ZM55.274,14.054c-.082.285-.21.534-.379.742-.169.208-.378.375-.622.496-.244.121-.529.183-.847.183s-.604-.061-.848-.183c-.243-.121-.453-.288-.621-.496-.169-.206-.297-.455-.38-.741-.082-.283-.123-.591-.123-.916s.041-.634.123-.916c.084-.287.212-.536.38-.742.169-.207.377-.374.621-.496.244-.121.529-.182.848-.182s.603.061.847.182c.244.122.453.289.622.496.169.206.297.457.379.742.082.284.123.592.123.916s-.041.633-.123.916h0Z"/>
    <path class="cls-1" d="M95.432,9.623c-.301,0-.544.059-.724.176-.173.112-.262.322-.262.624v4.868l-.033.01c-.07.02-.173.037-.306.051-.133.014-.329.022-.598.022-.715,0-1.238-.156-1.557-.464-.318-.308-.48-.759-.48-1.343v-3.788c-.059-.02-.169-.049-.312-.086-.181-.046-.38-.069-.589-.069-.3,0-.544.059-.724.176-.174.112-.262.322-.262.624v3.34c0,1.034.33,1.826.98,2.354.653.531,1.706.801,3.129.801.326,0,.647-.009.952-.029.306-.018.583-.036.834-.056.256-.02.455-.04.612-.062.121-.018.201-.032.243-.04v-6.953c-.066-.022-.194-.055-.312-.086-.181-.046-.379-.069-.589-.069h0Z"/>
    <path class="cls-1" d="M28.84,8.356v7.3c0,.716.363,1.064,1.11,1.064h5.691c-.005-.875-.142-1.716-1.528-1.716h-3.294v-2.24h4.213c.035-.054.082-.163.14-.324.057-.163.086-.347.086-.554,0-.27-.067-.477-.2-.621-.133-.144-.368-.216-.705-.216h-3.534v-2.297h3.758c.716,0,1.064-.363,1.064-1.11v-.606h-5.671c-.545,0-1.13.531-1.13,1.322h0Z"/>
    <path class="cls-1" d="M87.747,9.58c-1.058-.132-1.97-.179-2.586-.194v-.002c-.084-.002-.17-.003-.256-.003-.038,0-.074-.001-.112-.001h-.283c-.119.001-.184.003-.184.003v.005c-.152.005-.3.018-.446.036-.351.045-.685.124-.992.245-.485.192-.908.462-1.255.804s-.624.756-.821,1.229c-.026.063-.046.129-.068.194-.149.425-.229.892-.229,1.396,0,.583.086,1.11.255,1.566.169.451.409.836.714,1.145.308.31.677.548,1.101.707.429.163.906.244,1.419.244.289,0,.552-.034.782-.1.235-.069.443-.148.616-.235.171-.086.309-.173.411-.256.11-.089.184-.154.228-.2l.376-.391v.725c0,.425-.061.789-.183,1.082-.124.298-.299.547-.519.74-.22.194-.487.333-.794.414-.521.138-1.222.154-1.877.044-.281-.048-.531-.103-.741-.161-.17-.047-.318-.094-.44-.138-.052-.028-.094-.051-.125-.071,0,0-.005-.002-.006-.003h-.002c-.117.049-.229.133-.336.252-.115.125-.189.279-.221.459-.013.078-.016.154-.006.225.003.018.006.035.01.052h0v.003c.004.019.009.037.016.055-.001.001-.002.003-.003.005.013.049.041.123.096.21.053.084.134.18.252.276.245.198.656.396,1.345.487h0c.251.034.504.057.756.069,1.31.063,2.603-.194,3.529-1.111.005-.005.009-.009.015-.015.035-.035.068-.068.101-.099.332-.345.6-.782.794-1.3.208-.559.315-1.238.315-2.019v-.39s0-.003.002-.003v-5.887c-.042-.009-.119-.024-.243-.042-.112-.017-.253-.032-.406-.047h0ZM86.416,13.202c0,.62-.415,2.272-2.016,2.272-.578,0-1.061-.174-1.436-.516-.385-.349-.58-.877-.58-1.566,0-1.252.719-2.641,3.538-2.302.158.019.323.042.494.078v2.034h0Z"/>
  </g>
  <g>
    <path class="cls-2" d="M23.332,11.098c-.432-.053-.84-.11-1.229-.17-1.225-.211-3.172-.651-5.292-1.512-2.321-.942-5.07-2.478-6.358-4.027-.501-.618-.801-1.231-.796-1.803,0,0-.356-2.907,4.765-1.32.025.053,1.799,5.152,7.892,5.838.376.042.743.007.782-.187C21.464,3.313,17.077.011,11.913,0c-3.25-.007-6.198,1.291-8.348,3.4-.053.058-.106.115-.157.172-.287.326-1.064,1.244-1.069,2.303-.005,1.273,1.476,2.393,3.285,3.287h.011s4.049,1.987,6.89,2.621h0c.154.028.172.061.173.103-.001.041-.02.074-.173.102h0c-2.841.635-6.89,2.621-6.89,2.621h-.011c-1.809.894-3.29,2.014-3.285,3.287.005,1.059.782,1.977,1.069,2.303.051.057.104.115.157.172,2.15,2.109,5.098,3.407,8.348,3.4,5.163-.011,9.551-3.313,11.182-7.917-.038-.195-.407-.23-.782-.187-6.092.687-7.866,5.785-7.892,5.838-5.121,1.586-4.765-1.32-4.765-1.32-.005-.571.295-1.184.796-1.803,1.288-1.548,4.037-3.085,6.358-4.027,2.121-.861,4.067-1.302,5.292-1.512.388-.06.797-.117,1.229-.17.156-.016.359-.072.411-.306.029-.172.038-.315.038-.482s-.009-.31-.038-.482c-.053-.234-.255-.291-.411-.306h0Z"/>
    <path class="cls-2" d="M6.996,11.882c0-.067-.156-.111-.156-.11h0c-.757-.269-1.84-.707-2.758-1.148-1.658-.865-2.965-1.927-2.962-3.122,0-.105-.101-.121-.152-.121-.088,0-.14.14-.14.14C.297,8.864.003,10.329,0,11.863v.047c.003,1.533.297,2.998.828,4.342,0,0,.053.14.14.14.05,0,.152-.016.152-.121-.003-1.196,1.304-2.257,2.962-3.122.918-.442,2.001-.879,2.758-1.148h0s.156-.044.156-.111v-.007h0Z"/>
  </g>
</svg>